<svg preserveAspectRatio="none" overflow="visible" style="display: block;" width="15" height="15" viewBox="0 0 15 15" fill="none" xmlns="http://www.w3.org/2000/svg">
<g id="Icon">
<path id="Vector" fill-rule="evenodd" clip-rule="evenodd" d="M2.17781 5.32573C2.08247 5.41343 2.00634 5.51994 1.95422 5.63854C1.9021 5.75714 1.87513 5.88525 1.875 6.0148V13.5926C1.875 13.7169 1.92439 13.8362 2.01229 13.9241C2.1002 14.012 2.21943 14.0614 2.34375 14.0614H5.15625C5.28057 14.0614 5.3998 14.012 5.48771 13.9241C5.57561 13.8362 5.625 13.7169 5.625 13.5926V10.2973C5.625 9.80002 5.82254 9.3231 6.17417 8.97147C6.5258 8.61984 7.00272 8.4223 7.5 8.4223C7.99728 8.4223 8.47419 8.61984 8.82582 8.97147C9.17746 9.3231 9.375 9.80002 9.375 10.2973V13.5926C9.375 13.7169 9.42439 13.8362 9.51229 13.9241C9.6002 14.012 9.71943 14.0614 9.84375 14.0614H12.6562C12.7806 14.0614 12.8998 14.012 12.9877 13.9241C13.0756 13.8362 13.125 13.7169 13.125 13.5926V6.01573C13.1251 5.88587 13.0983 5.7574 13.0462 5.63846C12.994 5.51952 12.9178 5.41271 12.8222 5.3248L8.45156 1.30948C8.19206 1.07099 7.85245 0.938641 7.5 0.938641C7.14755 0.938641 6.80794 1.07099 6.54844 1.30948L2.17781 5.32573Z" fill="#5D5D5F"/>
</g>
</svg>
